<svg xmlns="http://www.w3.org/2000/svg" xmlns:xlink="http://www.w3.org/1999/xlink" width="368.831" height="257.999" viewBox="0 0 368.831 257.999"><defs><style>.a,.e{fill:none;}.b{clip-path:url(#a);}.c{fill:rgba(0,0,0,0);}.c,.d,.e{fill-rule:evenodd;}.d{fill:#783f04;}.e{stroke:#783f04;stroke-linejoin:round;stroke-miterlimit:10;}</style><clipPath id="a"><path class="a" d="M0,0H368.831V258H0Z"/></clipPath></defs><g class="b"><path class="c" d="M0,0H368.831V258H0Z"/><path class="d" d="M164.525,338.372a9.649,9.649,0,0,0-4.681,1.083,7.24,7.24,0,0,0-3.053,3.149l.226.084a4.648,4.648,0,0,1,3.06-1.118,6.193,6.193,0,0,1,1.523.176q.7.169,2.043.555,1.3.436,2.224.654a8.958,8.958,0,0,0,1.99.211,9.627,9.627,0,0,0,6.135-2.306,3.736,3.736,0,0,0,1.319-2.011l-.234-.042a4.316,4.316,0,0,1-2.917.991,8.358,8.358,0,0,1-1.621-.148,17.984,17.984,0,0,1-1.8-.5,17.053,17.053,0,0,0-2.11-.583A10.384,10.384,0,0,0,164.525,338.372Zm-36.4,9.673q1.161,0,1.161,1.772a6.63,6.63,0,0,1-.95,3.4,8.09,8.09,0,0,1-2.5,2.657,6.144,6.144,0,0,1-3.309,1.076,21.193,21.193,0,0,1,2.359-6.109Q126.5,348.045,128.122,348.045Zm35.756.562a1.777,1.777,0,0,1,1.432.541,1.686,1.686,0,0,1,.467,1.1l-2.224,9.758a5.265,5.265,0,0,1-1.56,2.791,3.436,3.436,0,0,1-2.284,1.012,2.393,2.393,0,0,1-1.651-.6q-.671-.6-.671-2.763a17.87,17.87,0,0,1,.837-4.991,15.546,15.546,0,0,1,2.314-4.837A4.18,4.18,0,0,1,163.877,348.608Zm-79.329-.218a1.447,1.447,0,0,1,1.289.541A4.136,4.136,0,0,1,86.3,350.9a2.251,2.251,0,0,0-1.432,2.334q0,1.554,1.244,1.814A19.636,19.636,0,0,1,84.91,359.6a10.367,10.367,0,0,1-1.945,3.241,3.115,3.115,0,0,1-2.216,1.188,2.143,2.143,0,0,1-1.854-.71,5.219,5.219,0,0,1-.513-2.791,20.208,20.208,0,0,1,3.2-10.067Q83.018,348.39,84.548,348.39Zm103.221,0a1.466,1.466,0,0,1,1.274.541,3.933,3.933,0,0,1,.49,1.926,2.2,2.2,0,0,0-1.3,2.243,1.812,1.812,0,0,0,1.108,1.947,18.1,18.1,0,0,1-2.043,6.39q-1.477,2.594-3.188,2.594a2.143,2.143,0,0,1-1.854-.71,5.219,5.219,0,0,1-.513-2.791,18.448,18.448,0,0,1,.859-5.118,17.829,17.829,0,0,1,2.246-4.97Q186.239,348.39,187.769,348.39ZM66.16,335.349a12.346,12.346,0,0,0-9.241,3.74,22.164,22.164,0,0,0-5.276,8.963A32.621,32.621,0,0,0,50,357.81q0,5.7,2.45,8.162t7.688,2.46a16,16,0,0,0,4.907-.837,15.348,15.348,0,0,0,4.869-2.657,11.431,11.431,0,0,0,1.777-1.767h0a5.364,5.364,0,0,0,1.785,3.11,8.276,8.276,0,0,0,5.419,1.638,9.272,9.272,0,0,0,5.231-1.6,11.849,11.849,0,0,0,3.935-4.541,18.5,18.5,0,0,0,1.9-6.868,19.6,19.6,0,0,0,3.887-.988h0l-3.14,13.818h6.663l3.151-13.863a8.216,8.216,0,0,1,1.485-2.868,2.727,2.727,0,0,1,2.126-1.1q1.666,0,1.666,2.2a11.578,11.578,0,0,1-.324,2.376q-.324,1.469-.693,2.981-.09.3-.347,1.385t-.49,2.221a10.72,10.72,0,0,0-.226,2.053,4.892,4.892,0,0,0,1.319,3.48,5.46,5.46,0,0,0,4.146,1.4,7.862,7.862,0,0,0,4.651-1.617,8.132,8.132,0,0,0,1.995-2.218h0a5.18,5.18,0,0,0,1.689,2.154,9.8,9.8,0,0,0,5.977,1.68,20.625,20.625,0,0,0,7.846-1.638A20.86,20.86,0,0,0,138.124,362a11.373,11.373,0,0,0,2.035,4.668A4.51,4.51,0,0,0,143.687,368a9.421,9.421,0,0,0,5.088-1.659,8.25,8.25,0,0,0,2.2-2.173h0a5.22,5.22,0,0,0,1.314,2.152,6.132,6.132,0,0,0,4.4,1.68,6.882,6.882,0,0,0,3.912-1.1,12.454,12.454,0,0,0,2.992-2.875,4.405,4.405,0,0,0,1.409,2.96A4.646,4.646,0,0,0,168.136,368a9.136,9.136,0,0,0,5.065-1.659,8.253,8.253,0,0,0,2.152-2.168h0a5.02,5.02,0,0,0,1.487,2.1,8.276,8.276,0,0,0,5.419,1.638,9.137,9.137,0,0,0,5.321-1.666,12,12,0,0,0,3.912-4.731,18.951,18.951,0,0,0,1.786-7.121,7.324,7.324,0,0,0,2.548-2.137,31.394,31.394,0,0,0,2.224-3.656h-1.477a13.638,13.638,0,0,1-1.492,1.926,3.421,3.421,0,0,1-1.8,1.054q-.415-5.828-5.879-5.828a10.225,10.225,0,0,0-7.228,2.615,15.122,15.122,0,0,0-4.07,6.172,19.9,19.9,0,0,0-1.251,6.545q0,.268.011.526h0a6.867,6.867,0,0,1-.869,1.33,2.859,2.859,0,0,1-2.246,1.125,1.66,1.66,0,0,1-1.9-1.856,4.929,4.929,0,0,1,.188-1.385l3.332-14.686H166.7l-.505,2.292v-.3a1.838,1.838,0,0,0-.927-1.6,5.254,5.254,0,0,0-2.827-.6,9.3,9.3,0,0,0-6.46,2.446,15.445,15.445,0,0,0-4.078,5.961,18.547,18.547,0,0,0-1.364,6.714q0,.185,0,.365h0a5.577,5.577,0,0,1-1.073,1.343,3.636,3.636,0,0,1-2.495,1.054,2.054,2.054,0,0,1-1.575-.647,3.785,3.785,0,0,1-.859-1.793q-.256-1.146-.3-1.364l-.415-2.116a39.659,39.659,0,0,0,5.1-5.961,8.323,8.323,0,0,0,1.53-4.45,4.2,4.2,0,0,0-.837-2.692,2.889,2.889,0,0,0-2.412-1.062,2.77,2.77,0,0,0-1.8.562,1.986,1.986,0,0,0-.693,1.638,2.543,2.543,0,0,0,.505,1.6,1.943,1.943,0,0,0,1.621.647,7.989,7.989,0,0,0,.837-.091,1.931,1.931,0,0,1,.045.52,6,6,0,0,1-1.161,2.981,23.157,23.157,0,0,1-3.241,3.888l-1.8-9.329h-6.535l2.646,13.392a15.845,15.845,0,0,1-5.239,3.627,14.337,14.337,0,0,1-5.646,1.293q-4.636,0-4.636-4.274a9.419,9.419,0,0,1,.053-1.167,13.543,13.543,0,0,0,5.276-1.406,10.691,10.691,0,0,0,3.935-3.255,7.378,7.378,0,0,0,1.485-4.45q0-4.148-5.1-4.148a10.116,10.116,0,0,0-7.183,2.636,15.311,15.311,0,0,0-4.07,6.172,19.416,19.416,0,0,0-1.251,6.39q0,.161,0,.318h0a8.006,8.006,0,0,1-1.073,1.608,2.825,2.825,0,0,1-2.216.928,1.846,1.846,0,0,1-1.44-.471,1.985,1.985,0,0,1-.415-1.343,9.28,9.28,0,0,1,.3-2.011q.3-1.272.671-2.615.6-2.2.927-3.733a13.563,13.563,0,0,0,.324-2.784,4.606,4.606,0,0,0-1.394-3.677,5.5,5.5,0,0,0-3.746-1.209,7.271,7.271,0,0,0-5.419,2.418l.513-2.243H95.615l-1.316,5.79h0l-.171.066a10.138,10.138,0,0,1-3.52.752,1.991,1.991,0,0,1-.505-.042v-.042q0-6.91-5.932-6.91a10.317,10.317,0,0,0-7.221,2.615,15.273,15.273,0,0,0-4.168,6.193,19.676,19.676,0,0,0-1.294,6.286h0a11.278,11.278,0,0,1-8.245,3.429q-3.151,0-4.357-1.722a8.769,8.769,0,0,1-1.2-5.012,33.083,33.083,0,0,1,1.364-9.153,25.841,25.841,0,0,1,3.588-7.881q2.224-3.135,4.681-3.135a2.774,2.774,0,0,1,2.148.738,2.7,2.7,0,0,1,.671,1.9,4.917,4.917,0,0,1-.648,2.418,3.485,3.485,0,0,1-1.477,1.554,3.307,3.307,0,0,0,2.638,1.125,2.844,2.844,0,0,0,2.45-1.061,4.785,4.785,0,0,0,.791-2.917,4.883,4.883,0,0,0-2.133-4.359,9.882,9.882,0,0,0-5.6-1.427Z" transform="translate(-30.79 -215.183)"/><path class="d" d="M492.969,305.215l-4.213,8.162h3.467l5.608-8.162Zm-6.022,13.863-2.683,11.747a30.85,30.85,0,0,0-5.653-1.511,42.059,42.059,0,0,1,4.191-6.538A13.29,13.29,0,0,1,486.946,319.078Zm92.713,9.631q1.161,0,1.161,1.772a6.63,6.63,0,0,1-.95,3.4,8.091,8.091,0,0,1-2.5,2.657,6.144,6.144,0,0,1-3.309,1.076,21.86,21.86,0,0,1,2.382-6.151Q578.038,328.709,579.659,328.709Zm-37.554.344a1.448,1.448,0,0,1,1.289.541,4.138,4.138,0,0,1,.467,1.968,2.251,2.251,0,0,0-1.432,2.334q0,1.554,1.244,1.814a19.632,19.632,0,0,1-1.206,4.555,10.367,10.367,0,0,1-1.945,3.241,3.115,3.115,0,0,1-2.216,1.188,2.143,2.143,0,0,1-1.854-.71,5.218,5.218,0,0,1-.513-2.791,20.208,20.208,0,0,1,3.2-10.067Q540.575,329.054,542.1,329.054Zm-45.848-2.242-4.907,21.6h6.663l3.708-16.415a11.082,11.082,0,0,1,1.734-1.272,3.394,3.394,0,0,1,1.643-.366.517.517,0,0,1,.505.26,3.736,3.736,0,0,1,.286.815,3.317,3.317,0,0,0,.528,1.322,1.667,1.667,0,0,0,1.372.45,3.135,3.135,0,0,0,3.332-3.149,3.294,3.294,0,0,0-.859-2.292,2.98,2.98,0,0,0-2.337-.949,5.662,5.662,0,0,0-2.759.7,18.712,18.712,0,0,0-2.842,1.982l.6-2.678Zm45.471-.387a10.317,10.317,0,0,0-7.221,2.615,15.274,15.274,0,0,0-4.168,6.193,19.37,19.37,0,0,0-1.3,6.524q0,3.543,1.99,5.188a8.275,8.275,0,0,0,5.419,1.638,9.272,9.272,0,0,0,5.231-1.6,11.849,11.849,0,0,0,3.934-4.541,18.494,18.494,0,0,0,1.9-6.868,19.6,19.6,0,0,0,3.887-.988h0l-3.14,13.818h6.663l3.708-16.415a11.082,11.082,0,0,1,1.734-1.272,3.394,3.394,0,0,1,1.643-.366.517.517,0,0,1,.505.26,3.73,3.73,0,0,1,.286.815,3.316,3.316,0,0,0,.528,1.322,1.666,1.666,0,0,0,1.372.45,3.135,3.135,0,0,0,3.331-3.149,3.294,3.294,0,0,0-.859-2.292,2.98,2.98,0,0,0-2.337-.949,5.662,5.662,0,0,0-2.759.7,18.715,18.715,0,0,0-2.842,1.982l.6-2.678h-6.671l-1.316,5.79h0l-.171.066a10.139,10.139,0,0,1-3.52.752,1.989,1.989,0,0,1-.5-.042v-.042Q547.66,326.424,541.728,326.424Zm-15.652-.478a3.145,3.145,0,0,0-2.156.647,2.167,2.167,0,0,0-.716,1.687,2.765,2.765,0,0,0,.437,1.511,1.4,1.4,0,0,0,1.236.689,4.365,4.365,0,0,0,.874-.105q.513-.105.6-.323h0a19.915,19.915,0,0,1-1.116,5.961,20.829,20.829,0,0,1-2.94,5.961q-1.824,2.5-3.957,2.5-1.575,0-1.575-1.427A8.464,8.464,0,0,1,517,341.5l3.339-14.686h-6.671L510.33,341.5a9.675,9.675,0,0,0-.226,2.074,4.748,4.748,0,0,0,1.5,3.824,6.3,6.3,0,0,0,4.191,1.272,9.761,9.761,0,0,0,7.364-3.107,19.405,19.405,0,0,0,4.4-7.536,27.1,27.1,0,0,0,1.432-8.316,4.823,4.823,0,0,0-.693-2.7A2.46,2.46,0,0,0,526.076,325.946Zm53.214.478a10.163,10.163,0,0,0-7.183,2.615,15.1,15.1,0,0,0-4.07,6.193,20.081,20.081,0,0,0-1.251,6.566q0,3.543,1.9,5.209a7.756,7.756,0,0,0,5.276,1.659q6.761,0,8.012-6.39h0a11.347,11.347,0,0,1-2.691,1.638,6.94,6.94,0,0,1-2.774.647q-2.872,0-2.872-3.585,0-.344.1-1.293a13.409,13.409,0,0,0,5.224-1.406,10.757,10.757,0,0,0,3.942-3.255,7.378,7.378,0,0,0,1.485-4.45Q584.385,326.424,579.29,326.424Zm-88.733-10.411q-3.844,0-8.08,3.564a44.444,44.444,0,0,0-8.035,9.174q-1.432-.127-2.4-.127a15.363,15.363,0,0,0-4.824.717,8.554,8.554,0,0,0-3.4,1.919,3.69,3.69,0,0,0-1.229,2.678,2.269,2.269,0,0,0,.784,1.856,3.2,3.2,0,0,0,2.088.647,3.51,3.51,0,0,0,1.854-.45,1.4,1.4,0,0,0,.739-1.237,2.012,2.012,0,0,0-.211-.9q-.2-.436-.392-.436a2.842,2.842,0,0,1,1.764-1.6,12.265,12.265,0,0,1,3.656-.647h0a58.3,58.3,0,0,0-4.93,9.807,23.188,23.188,0,0,0-1.877,7.768,4.294,4.294,0,0,0,.95,3.065,4.135,4.135,0,0,0,2.246,1.251,15.424,15.424,0,0,0,3.007.26,3.723,3.723,0,0,1-.648-2.418,32.335,32.335,0,0,1,1.688-8.872,70.883,70.883,0,0,1,4.334-10.861,18.069,18.069,0,0,1,6.2,1.554l-3.565,15.677h6.671l7.274-31.789A9.531,9.531,0,0,0,490.557,316.013Z" transform="translate(-284.86 -195.847)"/><path class="e" d="M164.525,338.372a9.649,9.649,0,0,0-4.681,1.083,7.24,7.24,0,0,0-3.053,3.149l.226.084a4.648,4.648,0,0,1,3.06-1.118,6.193,6.193,0,0,1,1.523.176q.7.169,2.043.555,1.3.436,2.224.654a8.958,8.958,0,0,0,1.99.211,9.627,9.627,0,0,0,6.135-2.306,3.736,3.736,0,0,0,1.319-2.011l-.234-.042a4.316,4.316,0,0,1-2.917.991,8.358,8.358,0,0,1-1.621-.148,17.984,17.984,0,0,1-1.8-.5,17.053,17.053,0,0,0-2.11-.583A10.384,10.384,0,0,0,164.525,338.372Zm-36.4,9.673q1.161,0,1.161,1.772a6.63,6.63,0,0,1-.95,3.4,8.09,8.09,0,0,1-2.5,2.657,6.144,6.144,0,0,1-3.309,1.076,21.193,21.193,0,0,1,2.359-6.109Q126.5,348.045,128.122,348.045Zm35.756.562a1.777,1.777,0,0,1,1.432.541,1.686,1.686,0,0,1,.467,1.1l-2.224,9.758a5.265,5.265,0,0,1-1.56,2.791,3.436,3.436,0,0,1-2.284,1.012,2.393,2.393,0,0,1-1.651-.6q-.671-.6-.671-2.763a17.87,17.87,0,0,1,.837-4.991,15.546,15.546,0,0,1,2.314-4.837A4.18,4.18,0,0,1,163.877,348.608Zm-79.329-.218a1.447,1.447,0,0,1,1.289.541A4.136,4.136,0,0,1,86.3,350.9a2.251,2.251,0,0,0-1.432,2.334q0,1.554,1.244,1.814A19.636,19.636,0,0,1,84.91,359.6a10.367,10.367,0,0,1-1.945,3.241,3.115,3.115,0,0,1-2.216,1.188,2.143,2.143,0,0,1-1.854-.71,5.219,5.219,0,0,1-.513-2.791,20.208,20.208,0,0,1,3.2-10.067Q83.018,348.39,84.548,348.39Zm103.221,0a1.466,1.466,0,0,1,1.274.541,3.933,3.933,0,0,1,.49,1.926,2.2,2.2,0,0,0-1.3,2.243,1.812,1.812,0,0,0,1.108,1.947,18.1,18.1,0,0,1-2.043,6.39q-1.477,2.594-3.188,2.594a2.143,2.143,0,0,1-1.854-.71,5.219,5.219,0,0,1-.513-2.791,18.448,18.448,0,0,1,.859-5.118,17.829,17.829,0,0,1,2.246-4.97Q186.239,348.39,187.769,348.39ZM66.16,335.349a12.346,12.346,0,0,0-9.241,3.74,22.164,22.164,0,0,0-5.276,8.963A32.621,32.621,0,0,0,50,357.81q0,5.7,2.45,8.162t7.688,2.46a16,16,0,0,0,4.907-.837,15.348,15.348,0,0,0,4.869-2.657,11.431,11.431,0,0,0,1.777-1.767h0a5.364,5.364,0,0,0,1.785,3.11,8.276,8.276,0,0,0,5.419,1.638,9.272,9.272,0,0,0,5.231-1.6,11.849,11.849,0,0,0,3.935-4.541,18.5,18.5,0,0,0,1.9-6.868,19.6,19.6,0,0,0,3.887-.988h0l-3.14,13.818h6.663l3.151-13.863a8.216,8.216,0,0,1,1.485-2.868,2.727,2.727,0,0,1,2.126-1.1q1.666,0,1.666,2.2a11.578,11.578,0,0,1-.324,2.376q-.324,1.469-.693,2.981-.09.3-.347,1.385t-.49,2.221a10.72,10.72,0,0,0-.226,2.053,4.892,4.892,0,0,0,1.319,3.48,5.46,5.46,0,0,0,4.146,1.4,7.862,7.862,0,0,0,4.651-1.617,8.132,8.132,0,0,0,1.995-2.218h0a5.18,5.18,0,0,0,1.689,2.154,9.8,9.8,0,0,0,5.977,1.68,20.625,20.625,0,0,0,7.846-1.638A20.86,20.86,0,0,0,138.124,362a11.373,11.373,0,0,0,2.035,4.668A4.51,4.51,0,0,0,143.687,368a9.421,9.421,0,0,0,5.088-1.659,8.25,8.25,0,0,0,2.2-2.173h0a5.22,5.22,0,0,0,1.314,2.152,6.132,6.132,0,0,0,4.4,1.68,6.882,6.882,0,0,0,3.912-1.1,12.454,12.454,0,0,0,2.992-2.875,4.405,4.405,0,0,0,1.409,2.96A4.646,4.646,0,0,0,168.136,368a9.136,9.136,0,0,0,5.065-1.659,8.253,8.253,0,0,0,2.152-2.168h0a5.02,5.02,0,0,0,1.487,2.1,8.276,8.276,0,0,0,5.419,1.638,9.137,9.137,0,0,0,5.321-1.666,12,12,0,0,0,3.912-4.731,18.951,18.951,0,0,0,1.786-7.121,7.324,7.324,0,0,0,2.548-2.137,31.394,31.394,0,0,0,2.224-3.656h-1.477a13.638,13.638,0,0,1-1.492,1.926,3.421,3.421,0,0,1-1.8,1.054q-.415-5.828-5.879-5.828a10.225,10.225,0,0,0-7.228,2.615,15.122,15.122,0,0,0-4.07,6.172,19.9,19.9,0,0,0-1.251,6.545q0,.268.011.526h0a6.867,6.867,0,0,1-.869,1.33,2.859,2.859,0,0,1-2.246,1.125,1.66,1.66,0,0,1-1.9-1.856,4.929,4.929,0,0,1,.188-1.385l3.332-14.686H166.7l-.505,2.292v-.3a1.838,1.838,0,0,0-.927-1.6,5.254,5.254,0,0,0-2.827-.6,9.3,9.3,0,0,0-6.46,2.446,15.445,15.445,0,0,0-4.078,5.961,18.547,18.547,0,0,0-1.364,6.714q0,.185,0,.365h0a5.577,5.577,0,0,1-1.073,1.343,3.636,3.636,0,0,1-2.495,1.054,2.054,2.054,0,0,1-1.575-.647,3.785,3.785,0,0,1-.859-1.793q-.256-1.146-.3-1.364l-.415-2.116a39.659,39.659,0,0,0,5.1-5.961,8.323,8.323,0,0,0,1.53-4.45,4.2,4.2,0,0,0-.837-2.692,2.889,2.889,0,0,0-2.412-1.062,2.77,2.77,0,0,0-1.8.562,1.986,1.986,0,0,0-.693,1.638,2.543,2.543,0,0,0,.505,1.6,1.943,1.943,0,0,0,1.621.647,7.989,7.989,0,0,0,.837-.091,1.931,1.931,0,0,1,.045.52,6,6,0,0,1-1.161,2.981,23.157,23.157,0,0,1-3.241,3.888l-1.8-9.329h-6.535l2.646,13.392a15.845,15.845,0,0,1-5.239,3.627,14.337,14.337,0,0,1-5.646,1.293q-4.636,0-4.636-4.274a9.419,9.419,0,0,1,.053-1.167,13.543,13.543,0,0,0,5.276-1.406,10.691,10.691,0,0,0,3.935-3.255,7.378,7.378,0,0,0,1.485-4.45q0-4.148-5.1-4.148a10.116,10.116,0,0,0-7.183,2.636,15.311,15.311,0,0,0-4.07,6.172,19.416,19.416,0,0,0-1.251,6.39q0,.161,0,.318h0a8.006,8.006,0,0,1-1.073,1.608,2.825,2.825,0,0,1-2.216.928,1.846,1.846,0,0,1-1.44-.471,1.985,1.985,0,0,1-.415-1.343,9.28,9.28,0,0,1,.3-2.011q.3-1.272.671-2.615.6-2.2.927-3.733a13.563,13.563,0,0,0,.324-2.784,4.606,4.606,0,0,0-1.394-3.677,5.5,5.5,0,0,0-3.746-1.209,7.271,7.271,0,0,0-5.419,2.418l.513-2.243H95.615l-1.316,5.79h0l-.171.066a10.138,10.138,0,0,1-3.52.752,1.991,1.991,0,0,1-.505-.042v-.042q0-6.91-5.932-6.91a10.317,10.317,0,0,0-7.221,2.615,15.273,15.273,0,0,0-4.168,6.193,19.676,19.676,0,0,0-1.294,6.286h0a11.278,11.278,0,0,1-8.245,3.429q-3.151,0-4.357-1.722a8.769,8.769,0,0,1-1.2-5.012,33.083,33.083,0,0,1,1.364-9.153,25.841,25.841,0,0,1,3.588-7.881q2.224-3.135,4.681-3.135a2.774,2.774,0,0,1,2.148.738,2.7,2.7,0,0,1,.671,1.9,4.917,4.917,0,0,1-.648,2.418,3.485,3.485,0,0,1-1.477,1.554,3.307,3.307,0,0,0,2.638,1.125,2.844,2.844,0,0,0,2.45-1.061,4.785,4.785,0,0,0,.791-2.917,4.883,4.883,0,0,0-2.133-4.359,9.882,9.882,0,0,0-5.6-1.427Z" transform="translate(-30.79 -215.183)"/><path class="e" d="M492.969,305.215l-4.213,8.162h3.467l5.608-8.162Zm-6.022,13.863-2.683,11.747a30.85,30.85,0,0,0-5.653-1.511,42.059,42.059,0,0,1,4.191-6.538A13.29,13.29,0,0,1,486.946,319.078Zm92.713,9.631q1.161,0,1.161,1.772a6.63,6.63,0,0,1-.95,3.4,8.091,8.091,0,0,1-2.5,2.657,6.144,6.144,0,0,1-3.309,1.076,21.86,21.86,0,0,1,2.382-6.151Q578.038,328.709,579.659,328.709Zm-37.554.344a1.448,1.448,0,0,1,1.289.541,4.138,4.138,0,0,1,.467,1.968,2.251,2.251,0,0,0-1.432,2.334q0,1.554,1.244,1.814a19.632,19.632,0,0,1-1.206,4.555,10.367,10.367,0,0,1-1.945,3.241,3.115,3.115,0,0,1-2.216,1.188,2.143,2.143,0,0,1-1.854-.71,5.218,5.218,0,0,1-.513-2.791,20.208,20.208,0,0,1,3.2-10.067Q540.575,329.054,542.1,329.054Zm-45.848-2.242-4.907,21.6h6.663l3.708-16.415a11.082,11.082,0,0,1,1.734-1.272,3.394,3.394,0,0,1,1.643-.366.517.517,0,0,1,.505.26,3.736,3.736,0,0,1,.286.815,3.317,3.317,0,0,0,.528,1.322,1.667,1.667,0,0,0,1.372.45,3.135,3.135,0,0,0,3.332-3.149,3.294,3.294,0,0,0-.859-2.292,2.98,2.98,0,0,0-2.337-.949,5.662,5.662,0,0,0-2.759.7,18.712,18.712,0,0,0-2.842,1.982l.6-2.678Zm45.471-.387a10.317,10.317,0,0,0-7.221,2.615,15.274,15.274,0,0,0-4.168,6.193,19.37,19.37,0,0,0-1.3,6.524q0,3.543,1.99,5.188a8.275,8.275,0,0,0,5.419,1.638,9.272,9.272,0,0,0,5.231-1.6,11.849,11.849,0,0,0,3.934-4.541,18.494,18.494,0,0,0,1.9-6.868,19.6,19.6,0,0,0,3.887-.988h0l-3.14,13.818h6.663l3.708-16.415a11.082,11.082,0,0,1,1.734-1.272,3.394,3.394,0,0,1,1.643-.366.517.517,0,0,1,.505.26,3.73,3.73,0,0,1,.286.815,3.316,3.316,0,0,0,.528,1.322,1.666,1.666,0,0,0,1.372.45,3.135,3.135,0,0,0,3.331-3.149,3.294,3.294,0,0,0-.859-2.292,2.98,2.98,0,0,0-2.337-.949,5.662,5.662,0,0,0-2.759.7,18.715,18.715,0,0,0-2.842,1.982l.6-2.678h-6.671l-1.316,5.79h0l-.171.066a10.139,10.139,0,0,1-3.52.752,1.989,1.989,0,0,1-.5-.042v-.042Q547.66,326.424,541.728,326.424Zm-15.652-.478a3.145,3.145,0,0,0-2.156.647,2.167,2.167,0,0,0-.716,1.687,2.765,2.765,0,0,0,.437,1.511,1.4,1.4,0,0,0,1.236.689,4.365,4.365,0,0,0,.874-.105q.513-.105.6-.323h0a19.915,19.915,0,0,1-1.116,5.961,20.829,20.829,0,0,1-2.94,5.961q-1.824,2.5-3.957,2.5-1.575,0-1.575-1.427A8.464,8.464,0,0,1,517,341.5l3.339-14.686h-6.671L510.33,341.5a9.675,9.675,0,0,0-.226,2.074,4.748,4.748,0,0,0,1.5,3.824,6.3,6.3,0,0,0,4.191,1.272,9.761,9.761,0,0,0,7.364-3.107,19.405,19.405,0,0,0,4.4-7.536,27.1,27.1,0,0,0,1.432-8.316,4.823,4.823,0,0,0-.693-2.7A2.46,2.46,0,0,0,526.076,325.946Zm53.214.478a10.163,10.163,0,0,0-7.183,2.615,15.1,15.1,0,0,0-4.07,6.193,20.081,20.081,0,0,0-1.251,6.566q0,3.543,1.9,5.209a7.756,7.756,0,0,0,5.276,1.659q6.761,0,8.012-6.39h0a11.347,11.347,0,0,1-2.691,1.638,6.94,6.94,0,0,1-2.774.647q-2.872,0-2.872-3.585,0-.344.1-1.293a13.409,13.409,0,0,0,5.224-1.406,10.757,10.757,0,0,0,3.942-3.255,7.378,7.378,0,0,0,1.485-4.45Q584.385,326.424,579.29,326.424Zm-88.733-10.411q-3.844,0-8.08,3.564a44.444,44.444,0,0,0-8.035,9.174q-1.432-.127-2.4-.127a15.363,15.363,0,0,0-4.824.717,8.554,8.554,0,0,0-3.4,1.919,3.69,3.69,0,0,0-1.229,2.678,2.269,2.269,0,0,0,.784,1.856,3.2,3.2,0,0,0,2.088.647,3.51,3.51,0,0,0,1.854-.45,1.4,1.4,0,0,0,.739-1.237,2.012,2.012,0,0,0-.211-.9q-.2-.436-.392-.436a2.842,2.842,0,0,1,1.764-1.6,12.265,12.265,0,0,1,3.656-.647h0a58.3,58.3,0,0,0-4.93,9.807,23.188,23.188,0,0,0-1.877,7.768,4.294,4.294,0,0,0,.95,3.065,4.135,4.135,0,0,0,2.246,1.251,15.424,15.424,0,0,0,3.007.26,3.723,3.723,0,0,1-.648-2.418,32.335,32.335,0,0,1,1.688-8.872,70.883,70.883,0,0,1,4.334-10.861,18.069,18.069,0,0,1,6.2,1.554l-3.565,15.677h6.671l7.274-31.789A9.531,9.531,0,0,0,490.557,316.013Z" transform="translate(-284.86 -195.847)"/></g></svg>