<svg xmlns="http://www.w3.org/2000/svg" xmlns:xlink="http://www.w3.org/1999/xlink" width="188.331" height="100" viewBox="0 0 188.331 100"><defs><style>.a,.e{fill:none;}.b{clip-path:url(#a);}.c{fill:rgba(0,0,0,0);}.c,.d,.e{fill-rule:evenodd;}.d{fill:#a87dd1;}.e{stroke:#a87dd1;stroke-linejoin:round;stroke-miterlimit:10;}</style><clipPath id="a"><path class="a" d="M0,0H188.331V100H0Z"/></clipPath></defs><g class="b"><path class="c" d="M0,0H188.331V100H0Z"/><path class="d" d="M16.143,5.969q-.064,0-.134.006a1.643,1.643,0,0,0-.94.57l-3.532,3.822.616.928L16.22,8.459A2.19,2.19,0,0,0,17,7.6a1.258,1.258,0,0,0,.1-.747,1.517,1.517,0,0,0-.151-.467,1.31,1.31,0,0,0-.3-.27A.833.833,0,0,0,16.143,5.969ZM2.917,13.2v1.369q.507-.031,1.009-.047t1.013-.047h0q-.027.607-.073,1.737t-.041,1.96v6.467a28.64,28.64,0,0,0,.392,5.1A9.615,9.615,0,0,0,6.522,33.28a5.48,5.48,0,0,0,2.437,2.069,9.415,9.415,0,0,0,3.774.669,6.94,6.94,0,0,0,3.546-.84,6.56,6.56,0,0,0,2.327-2.313,10.636,10.636,0,0,0,1.278-3.345,19.325,19.325,0,0,0,.392-3.952l.055-7.39q0-1.151.041-2.007A2.316,2.316,0,0,1,20.82,14.8a1.862,1.862,0,0,1,1.474-.545V13.2H17.078V14.61q.507-.036.995-.067l.995-.062h0q-.027.477-.055,1.068t-.027,1.224L18.9,25.729a15.317,15.317,0,0,1-.634,4.4,6.292,6.292,0,0,1-1.88,2.992A4.9,4.9,0,0,1,13.1,34.2a5.3,5.3,0,0,1-3.044-.793A4.952,4.952,0,0,1,8.3,31.273a10.774,10.774,0,0,1-.8-3.008,27.806,27.806,0,0,1-.21-3.459V16.772a7.544,7.544,0,0,1,.082-1.032A1.923,1.923,0,0,1,7.869,14.7,1.728,1.728,0,0,1,9.2,14.257V13.2Z"/><path class="d" d="M27.342,11.451a2,2,0,0,1-.548.415,3.673,3.673,0,0,1-1.04.322,11.344,11.344,0,0,1-1.917.124V13.65l.99-.062,1-.062h0q-.055.638-.073,1.1t-.014.97V30.666q0,1.146-.055,2.023a2.737,2.737,0,0,1-.392,1.374,1.357,1.357,0,0,1-1.2.493v.954h5.718V34.2q-.447.031-.881.047t-.885.052a10.213,10.213,0,0,0,.114-1.037q.027-.493.027-1.131l-.027-20.682Z"/><path class="d" d="M35.023,15.118a6.784,6.784,0,0,1-.826,2.23,5.652,5.652,0,0,1-1.36,1.613,2.633,2.633,0,0,1-1.488.617v1.369l2.158-.031-.055,9.242a11.543,11.543,0,0,0,.333,3.075A4.275,4.275,0,0,0,34.7,35a2.925,2.925,0,0,0,1.246.809,4.479,4.479,0,0,0,1.319.207,5.139,5.139,0,0,0,.812-.078,3.319,3.319,0,0,0,1.04-.384,5.04,5.04,0,0,0,1.164-.908A8.4,8.4,0,0,0,41.5,32.994l-.758-.705a4.727,4.727,0,0,1-1.218,1.405,2.438,2.438,0,0,1-1.474.508,1.618,1.618,0,0,1-1.232-.508,3.179,3.179,0,0,1-.689-1.514,12.131,12.131,0,0,1-.21-2.437l.059-8.858,4.709-.062V19.578H35.977v-4.46Z"/><path class="d" d="M45.581,12.312a1.341,1.341,0,0,0-1.05.56,2.222,2.222,0,0,0-.014,2.692,1.319,1.319,0,0,0,1.036.539,1.382,1.382,0,0,0,1.077-.539,1.988,1.988,0,0,0,.465-1.338,2.132,2.132,0,0,0-.434-1.354A1.318,1.318,0,0,0,45.581,12.312Zm.516,6.949a2,2,0,0,1-.548.415,3.793,3.793,0,0,1-1.022.316,11.125,11.125,0,0,1-1.908.124v1.338l.995-.062.995-.062h0q-.055.638-.082,1.1t-.027.97v7.266q0,1.146-.059,2.023a2.737,2.737,0,0,1-.392,1.374,1.35,1.35,0,0,1-1.2.493v.954h5.723V34.2q-.452.031-.885.047T46.8,34.3a8.56,8.56,0,0,0,.1-1.037q.014-.493.014-1.131V19.262Z"/><path class="d" d="M58.854,19.07a5.039,5.039,0,0,0-2.19.524,7.092,7.092,0,0,0-1.93,1.354q-.027-.539-.041-.954a4.879,4.879,0,0,0-.073-.731h-.812a2.23,2.23,0,0,1-.507.415,3.044,3.044,0,0,1-.935.316,10.381,10.381,0,0,1-1.866.124v1.338l.995-.062.995-.062h0a8.5,8.5,0,0,0-.1,1.053q-.014.508-.014,1.016v7.266q0,1.146-.059,2.023a2.737,2.737,0,0,1-.392,1.374,1.35,1.35,0,0,1-1.2.493v.954h5.723V34.2q-.452.031-.885.047t-.881.052a8.559,8.559,0,0,0,.1-1.037q.014-.493.014-1.131V23.945q0-.477-.014-.908t-.014-.814a4.79,4.79,0,0,1,1.428-1.1,3.731,3.731,0,0,1,1.711-.43h.071a2.412,2.412,0,0,1,2.311,1.375,9.019,9.019,0,0,1,.7,4.139l-.027,4.46q0,1.146-.073,2.023a2.935,2.935,0,0,1-.392,1.374,1.313,1.313,0,0,1-1.191.493v.954h5.723V34.2q-.452.031-.885.047t-.881.052a8.559,8.559,0,0,0,.1-1.037q.014-.493.014-1.131.027-1.883.027-3.76t.032-3.729a9.9,9.9,0,0,0-.073-1.224,7.335,7.335,0,0,0-.21-1.1,5.683,5.683,0,0,1,1.51-1.115,3.8,3.8,0,0,1,1.743-.446h.073A2.511,2.511,0,0,1,68.82,22.1a8.594,8.594,0,0,1,.771,4.107v4.46q0,1.146-.055,2.023a2.737,2.737,0,0,1-.392,1.374,1.357,1.357,0,0,1-1.2.493v.954h5.718V34.2q-.447.031-.885.047t-.881.052a8.562,8.562,0,0,0,.1-1.037q.018-.493.018-1.131l.027-5.928q.055-3.791-1.1-5.461a4.046,4.046,0,0,0-3.587-1.675,5.484,5.484,0,0,0-2.455.622A9.126,9.126,0,0,0,62.7,21.2a4,4,0,0,0-1.488-1.556A4.483,4.483,0,0,0,58.854,19.07Z"/><path class="d" d="M82.742,20.278a2.894,2.894,0,0,1,1.921.669,4.88,4.88,0,0,1,1.3,1.8,10.443,10.443,0,0,1,.744,2.52,16.336,16.336,0,0,1,.242,2.816,13.358,13.358,0,0,1-.379,3.221,5.644,5.644,0,0,1-1.25,2.489,3.023,3.023,0,0,1-2.355.954A3.158,3.158,0,0,1,80.5,33.632a7.1,7.1,0,0,1-1.456-2.889A14.37,14.37,0,0,1,78.567,27,12,12,0,0,1,79,23.722a5.735,5.735,0,0,1,1.36-2.484A3.166,3.166,0,0,1,82.742,20.278Zm0-1.208a5.97,5.97,0,0,0-3.591,1.162A7.928,7.928,0,0,0,76.627,23.4a10.727,10.727,0,0,0-.922,4.527,9.064,9.064,0,0,0,.94,4.19,7.326,7.326,0,0,0,2.537,2.868,6.42,6.42,0,0,0,3.559,1.032,5.9,5.9,0,0,0,3.587-1.177,8.086,8.086,0,0,0,2.537-3.2,10.524,10.524,0,0,0,.94-4.481,8.764,8.764,0,0,0-.954-4.139A7.6,7.6,0,0,0,86.3,20.138,6.262,6.262,0,0,0,82.742,19.07Z"/><path class="d" d="M97.209,19.07a5.272,5.272,0,0,0-2.355.462,4.01,4.01,0,0,0-1.46,1.177,4.714,4.714,0,0,0-.758,1.514,5.477,5.477,0,0,0-.224,1.468,4.481,4.481,0,0,0,.42,2.038,4.308,4.308,0,0,0,1.136,1.405,8.619,8.619,0,0,0,1.556.985q.844.41,1.684.793a15.218,15.218,0,0,1,1.625.83,4.258,4.258,0,0,1,1.218,1.037,2.3,2.3,0,0,1,.465,1.478,2.109,2.109,0,0,1-.479,1.421,2.923,2.923,0,0,1-1.177.83,3.933,3.933,0,0,1-1.428.27,3.728,3.728,0,0,1-1.99-.57A4.423,4.423,0,0,1,93.928,32.6a5.11,5.11,0,0,1-.643-2.344h-.872l.169,5.482h1.177l-.11-1.115h0a7.3,7.3,0,0,0,1.793.97,6.784,6.784,0,0,0,2.5.43,5.607,5.607,0,0,0,2.309-.493,4.284,4.284,0,0,0,1.825-1.545,4.6,4.6,0,0,0,.716-2.645A3.932,3.932,0,0,0,102.142,29a5.333,5.333,0,0,0-1.652-1.514q-1.009-.607-2.076-1.115-.981-.446-1.853-.923a4.969,4.969,0,0,1-1.415-1.136,2.478,2.478,0,0,1-.543-1.639,2.324,2.324,0,0,1,.726-1.685,2.719,2.719,0,0,1,2.022-.736,2.815,2.815,0,0,1,1.962.685,4.352,4.352,0,0,1,1.15,1.722,7.017,7.017,0,0,1,.447,2.152h.9v-5.58h-1.177l.055,1.214a4.717,4.717,0,0,0-1.793-1.084A5.773,5.773,0,0,0,97.209,19.07Z"/><path class="d" d="M111.481,19.578v1.307l1.2-.1q.027.353.123.928a13.951,13.951,0,0,0,.351,1.431q.256.861.7,2.069L117.875,35.6h1.118l3.674-10.766q.507-1.437.885-2.391a4.967,4.967,0,0,1,.8-1.431,1.32,1.32,0,0,1,1.036-.482v-.954H120.96v1.307l1.793-.1h0q-.114.29-.365.866a11.579,11.579,0,0,0-.479,1.333l-2.241,6.981q-.141.508-.324,1.053t-.319,1.016h-.032q-.2-.638-.406-1.224t-.434-1.131l-2.158-5.611a12.516,12.516,0,0,1-.507-1.732,2.072,2.072,0,0,1,.073-1.307q.237-.5,1.077-.5v-.954Z"/><path class="d" d="M129.442,12.312a1.341,1.341,0,0,0-1.05.56,2.222,2.222,0,0,0-.014,2.692,1.319,1.319,0,0,0,1.036.539,1.382,1.382,0,0,0,1.077-.539,1.988,1.988,0,0,0,.465-1.338,2.132,2.132,0,0,0-.434-1.354A1.318,1.318,0,0,0,129.442,12.312Zm.516,6.949a2,2,0,0,1-.548.415,3.793,3.793,0,0,1-1.022.316,11.125,11.125,0,0,1-1.908.124v1.338l.995-.062.995-.062h0q-.055.638-.082,1.1t-.027.97v7.266q0,1.146-.059,2.023a2.737,2.737,0,0,1-.392,1.374,1.35,1.35,0,0,1-1.2.493v.954h5.723V34.2q-.452.031-.885.047t-.881.052a8.562,8.562,0,0,0,.1-1.037q.014-.493.014-1.131V19.262Z"/><path class="d" d="M139.6,19.07a5.272,5.272,0,0,0-2.355.462,4.011,4.011,0,0,0-1.46,1.177,4.714,4.714,0,0,0-.758,1.514,5.478,5.478,0,0,0-.224,1.468,4.481,4.481,0,0,0,.42,2.038,4.308,4.308,0,0,0,1.136,1.405,8.618,8.618,0,0,0,1.556.985q.844.41,1.684.793a15.218,15.218,0,0,1,1.625.83,4.258,4.258,0,0,1,1.218,1.037,2.3,2.3,0,0,1,.465,1.478,2.109,2.109,0,0,1-.479,1.421,2.923,2.923,0,0,1-1.177.83,3.933,3.933,0,0,1-1.428.27,3.728,3.728,0,0,1-1.99-.57,4.423,4.423,0,0,1-1.515-1.613,5.11,5.11,0,0,1-.643-2.344h-.872l.169,5.482h1.177l-.11-1.115h0a7.3,7.3,0,0,0,1.793.97,6.784,6.784,0,0,0,2.5.43,5.607,5.607,0,0,0,2.309-.493,4.284,4.284,0,0,0,1.825-1.545,4.6,4.6,0,0,0,.716-2.645A3.932,3.932,0,0,0,144.535,29a5.333,5.333,0,0,0-1.652-1.514q-1.009-.607-2.076-1.115-.981-.446-1.853-.923a4.969,4.969,0,0,1-1.415-1.136A2.478,2.478,0,0,1,137,22.669a2.324,2.324,0,0,1,.726-1.685,2.719,2.719,0,0,1,2.022-.736,2.815,2.815,0,0,1,1.962.685,4.352,4.352,0,0,1,1.15,1.722,7.017,7.017,0,0,1,.447,2.152h.9v-5.58h-1.177l.055,1.214a4.717,4.717,0,0,0-1.793-1.084A5.773,5.773,0,0,0,139.6,19.07Z"/><path class="d" d="M150.594,15.118a6.784,6.784,0,0,1-.826,2.23,5.652,5.652,0,0,1-1.36,1.613,2.633,2.633,0,0,1-1.488.617v1.369l2.158-.031-.055,9.242a11.542,11.542,0,0,0,.333,3.075A4.275,4.275,0,0,0,150.27,35a2.925,2.925,0,0,0,1.246.809,4.479,4.479,0,0,0,1.319.207,5.139,5.139,0,0,0,.812-.078,3.319,3.319,0,0,0,1.04-.384,5.04,5.04,0,0,0,1.164-.908,8.4,8.4,0,0,0,1.218-1.654l-.758-.705a4.727,4.727,0,0,1-1.218,1.405,2.438,2.438,0,0,1-1.474.508,1.618,1.618,0,0,1-1.232-.508,3.179,3.179,0,0,1-.689-1.514,12.131,12.131,0,0,1-.21-2.437l.059-8.858,4.709-.062V19.578h-4.709v-4.46Z"/><path class="d" d="M165.369,20.278a2.894,2.894,0,0,1,1.921.669,4.88,4.88,0,0,1,1.3,1.8,10.443,10.443,0,0,1,.744,2.52,16.336,16.336,0,0,1,.242,2.816A13.358,13.358,0,0,1,169.2,31.3a5.644,5.644,0,0,1-1.25,2.489,3.023,3.023,0,0,1-2.355.954,3.158,3.158,0,0,1-2.469-1.115,7.1,7.1,0,0,1-1.456-2.889A14.37,14.37,0,0,1,161.193,27a12,12,0,0,1,.434-3.283,5.734,5.734,0,0,1,1.36-2.484A3.166,3.166,0,0,1,165.369,20.278Zm0-1.208a5.97,5.97,0,0,0-3.591,1.162,7.928,7.928,0,0,0-2.524,3.169,10.727,10.727,0,0,0-.922,4.527,9.064,9.064,0,0,0,.94,4.19,7.326,7.326,0,0,0,2.537,2.868,6.42,6.42,0,0,0,3.559,1.032,5.9,5.9,0,0,0,3.587-1.177,8.086,8.086,0,0,0,2.537-3.2,10.524,10.524,0,0,0,.94-4.481,8.764,8.764,0,0,0-.954-4.139,7.6,7.6,0,0,0-2.551-2.883A6.262,6.262,0,0,0,165.369,19.07Z"/><path class="d" d="M179.836,19.07a5.272,5.272,0,0,0-2.355.462,4.011,4.011,0,0,0-1.46,1.177,4.714,4.714,0,0,0-.758,1.514,5.478,5.478,0,0,0-.224,1.468,4.481,4.481,0,0,0,.42,2.038,4.308,4.308,0,0,0,1.136,1.405,8.619,8.619,0,0,0,1.556.985q.844.41,1.684.793a15.218,15.218,0,0,1,1.625.83,4.258,4.258,0,0,1,1.218,1.037,2.3,2.3,0,0,1,.465,1.478,2.109,2.109,0,0,1-.479,1.421,2.924,2.924,0,0,1-1.177.83,3.933,3.933,0,0,1-1.428.27,3.728,3.728,0,0,1-1.99-.57,4.423,4.423,0,0,1-1.515-1.613,5.11,5.11,0,0,1-.643-2.344h-.872l.169,5.482h1.177l-.11-1.115h0a7.3,7.3,0,0,0,1.793.97,6.784,6.784,0,0,0,2.5.43,5.607,5.607,0,0,0,2.309-.493A4.284,4.284,0,0,0,184.7,33.98a4.6,4.6,0,0,0,.716-2.645A3.932,3.932,0,0,0,184.769,29a5.333,5.333,0,0,0-1.652-1.514q-1.008-.607-2.076-1.115-.981-.446-1.853-.923a4.969,4.969,0,0,1-1.415-1.136,2.478,2.478,0,0,1-.543-1.639,2.324,2.324,0,0,1,.726-1.685,2.719,2.719,0,0,1,2.022-.736,2.815,2.815,0,0,1,1.962.685,4.352,4.352,0,0,1,1.15,1.722,7.016,7.016,0,0,1,.447,2.152h.9v-5.58h-1.177l.055,1.214a4.717,4.717,0,0,0-1.793-1.084A5.773,5.773,0,0,0,179.836,19.07Z"/><path class="e" d="M16.143,5.969q-.064,0-.134.006a1.643,1.643,0,0,0-.94.57l-3.532,3.822.616.928L16.22,8.459A2.19,2.19,0,0,0,17,7.6a1.258,1.258,0,0,0,.1-.747,1.517,1.517,0,0,0-.151-.467,1.31,1.31,0,0,0-.3-.27A.833.833,0,0,0,16.143,5.969ZM2.917,13.2v1.369q.507-.031,1.009-.047t1.013-.047h0q-.027.607-.073,1.737t-.041,1.96v6.467a28.64,28.64,0,0,0,.392,5.1A9.615,9.615,0,0,0,6.522,33.28a5.48,5.48,0,0,0,2.437,2.069,9.415,9.415,0,0,0,3.774.669,6.94,6.94,0,0,0,3.546-.84,6.56,6.56,0,0,0,2.327-2.313,10.636,10.636,0,0,0,1.278-3.345,19.325,19.325,0,0,0,.392-3.952l.055-7.39q0-1.151.041-2.007A2.316,2.316,0,0,1,20.82,14.8a1.862,1.862,0,0,1,1.474-.545V13.2H17.078V14.61q.507-.036.995-.067l.995-.062h0q-.027.477-.055,1.068t-.027,1.224L18.9,25.729a15.317,15.317,0,0,1-.634,4.4,6.292,6.292,0,0,1-1.88,2.992A4.9,4.9,0,0,1,13.1,34.2a5.3,5.3,0,0,1-3.044-.793A4.952,4.952,0,0,1,8.3,31.273a10.774,10.774,0,0,1-.8-3.008,27.806,27.806,0,0,1-.21-3.459V16.772a7.544,7.544,0,0,1,.082-1.032A1.923,1.923,0,0,1,7.869,14.7,1.728,1.728,0,0,1,9.2,14.257V13.2Z"/><path class="e" d="M27.342,11.451a2,2,0,0,1-.548.415,3.673,3.673,0,0,1-1.04.322,11.344,11.344,0,0,1-1.917.124V13.65l.99-.062,1-.062h0q-.055.638-.073,1.1t-.014.97V30.666q0,1.146-.055,2.023a2.737,2.737,0,0,1-.392,1.374,1.357,1.357,0,0,1-1.2.493v.954h5.718V34.2q-.447.031-.881.047t-.885.052a10.213,10.213,0,0,0,.114-1.037q.027-.493.027-1.131l-.027-20.682Z"/><path class="e" d="M35.023,15.118a6.784,6.784,0,0,1-.826,2.23,5.652,5.652,0,0,1-1.36,1.613,2.633,2.633,0,0,1-1.488.617v1.369l2.158-.031-.055,9.242a11.543,11.543,0,0,0,.333,3.075A4.275,4.275,0,0,0,34.7,35a2.925,2.925,0,0,0,1.246.809,4.479,4.479,0,0,0,1.319.207,5.139,5.139,0,0,0,.812-.078,3.319,3.319,0,0,0,1.04-.384,5.04,5.04,0,0,0,1.164-.908A8.4,8.4,0,0,0,41.5,32.994l-.758-.705a4.727,4.727,0,0,1-1.218,1.405,2.438,2.438,0,0,1-1.474.508,1.618,1.618,0,0,1-1.232-.508,3.179,3.179,0,0,1-.689-1.514,12.131,12.131,0,0,1-.21-2.437l.059-8.858,4.709-.062V19.578H35.977v-4.46Z"/><path class="e" d="M45.581,12.312a1.341,1.341,0,0,0-1.05.56,2.222,2.222,0,0,0-.014,2.692,1.319,1.319,0,0,0,1.036.539,1.382,1.382,0,0,0,1.077-.539,1.988,1.988,0,0,0,.465-1.338,2.132,2.132,0,0,0-.434-1.354A1.318,1.318,0,0,0,45.581,12.312Zm.516,6.949a2,2,0,0,1-.548.415,3.793,3.793,0,0,1-1.022.316,11.125,11.125,0,0,1-1.908.124v1.338l.995-.062.995-.062h0q-.055.638-.082,1.1t-.027.97v7.266q0,1.146-.059,2.023a2.737,2.737,0,0,1-.392,1.374,1.35,1.35,0,0,1-1.2.493v.954h5.723V34.2q-.452.031-.885.047T46.8,34.3a8.56,8.56,0,0,0,.1-1.037q.014-.493.014-1.131V19.262Z"/><path class="e" d="M58.854,19.07a5.039,5.039,0,0,0-2.19.524,7.092,7.092,0,0,0-1.93,1.354q-.027-.539-.041-.954a4.879,4.879,0,0,0-.073-.731h-.812a2.23,2.23,0,0,1-.507.415,3.044,3.044,0,0,1-.935.316,10.381,10.381,0,0,1-1.866.124v1.338l.995-.062.995-.062h0a8.5,8.5,0,0,0-.1,1.053q-.014.508-.014,1.016v7.266q0,1.146-.059,2.023a2.737,2.737,0,0,1-.392,1.374,1.35,1.35,0,0,1-1.2.493v.954h5.723V34.2q-.452.031-.885.047t-.881.052a8.559,8.559,0,0,0,.1-1.037q.014-.493.014-1.131V23.945q0-.477-.014-.908t-.014-.814a4.79,4.79,0,0,1,1.428-1.1,3.731,3.731,0,0,1,1.711-.43h.071a2.412,2.412,0,0,1,2.311,1.375,9.019,9.019,0,0,1,.7,4.139l-.027,4.46q0,1.146-.073,2.023a2.935,2.935,0,0,1-.392,1.374,1.313,1.313,0,0,1-1.191.493v.954h5.723V34.2q-.452.031-.885.047t-.881.052a8.559,8.559,0,0,0,.1-1.037q.014-.493.014-1.131.027-1.883.027-3.76t.032-3.729a9.9,9.9,0,0,0-.073-1.224,7.335,7.335,0,0,0-.21-1.1,5.683,5.683,0,0,1,1.51-1.115,3.8,3.8,0,0,1,1.743-.446h.073A2.511,2.511,0,0,1,68.82,22.1a8.594,8.594,0,0,1,.771,4.107v4.46q0,1.146-.055,2.023a2.737,2.737,0,0,1-.392,1.374,1.357,1.357,0,0,1-1.2.493v.954h5.718V34.2q-.447.031-.885.047t-.881.052a8.562,8.562,0,0,0,.1-1.037q.018-.493.018-1.131l.027-5.928q.055-3.791-1.1-5.461a4.046,4.046,0,0,0-3.587-1.675,5.484,5.484,0,0,0-2.455.622A9.126,9.126,0,0,0,62.7,21.2a4,4,0,0,0-1.488-1.556A4.483,4.483,0,0,0,58.854,19.07Z"/><path class="e" d="M82.742,20.278a2.894,2.894,0,0,1,1.921.669,4.88,4.88,0,0,1,1.3,1.8,10.443,10.443,0,0,1,.744,2.52,16.336,16.336,0,0,1,.242,2.816,13.358,13.358,0,0,1-.379,3.221,5.644,5.644,0,0,1-1.25,2.489,3.023,3.023,0,0,1-2.355.954A3.158,3.158,0,0,1,80.5,33.632a7.1,7.1,0,0,1-1.456-2.889A14.37,14.37,0,0,1,78.567,27,12,12,0,0,1,79,23.722a5.735,5.735,0,0,1,1.36-2.484A3.166,3.166,0,0,1,82.742,20.278Zm0-1.208a5.97,5.97,0,0,0-3.591,1.162A7.928,7.928,0,0,0,76.627,23.4a10.727,10.727,0,0,0-.922,4.527,9.064,9.064,0,0,0,.94,4.19,7.326,7.326,0,0,0,2.537,2.868,6.42,6.42,0,0,0,3.559,1.032,5.9,5.9,0,0,0,3.587-1.177,8.086,8.086,0,0,0,2.537-3.2,10.524,10.524,0,0,0,.94-4.481,8.764,8.764,0,0,0-.954-4.139A7.6,7.6,0,0,0,86.3,20.138,6.262,6.262,0,0,0,82.742,19.07Z"/><path class="e" d="M97.209,19.07a5.272,5.272,0,0,0-2.355.462,4.01,4.01,0,0,0-1.46,1.177,4.714,4.714,0,0,0-.758,1.514,5.477,5.477,0,0,0-.224,1.468,4.481,4.481,0,0,0,.42,2.038,4.308,4.308,0,0,0,1.136,1.405,8.619,8.619,0,0,0,1.556.985q.844.41,1.684.793a15.218,15.218,0,0,1,1.625.83,4.258,4.258,0,0,1,1.218,1.037,2.3,2.3,0,0,1,.465,1.478,2.109,2.109,0,0,1-.479,1.421,2.923,2.923,0,0,1-1.177.83,3.933,3.933,0,0,1-1.428.27,3.728,3.728,0,0,1-1.99-.57A4.423,4.423,0,0,1,93.928,32.6a5.11,5.11,0,0,1-.643-2.344h-.872l.169,5.482h1.177l-.11-1.115h0a7.3,7.3,0,0,0,1.793.97,6.784,6.784,0,0,0,2.5.43,5.607,5.607,0,0,0,2.309-.493,4.284,4.284,0,0,0,1.825-1.545,4.6,4.6,0,0,0,.716-2.645A3.932,3.932,0,0,0,102.142,29a5.333,5.333,0,0,0-1.652-1.514q-1.009-.607-2.076-1.115-.981-.446-1.853-.923a4.969,4.969,0,0,1-1.415-1.136,2.478,2.478,0,0,1-.543-1.639,2.324,2.324,0,0,1,.726-1.685,2.719,2.719,0,0,1,2.022-.736,2.815,2.815,0,0,1,1.962.685,4.352,4.352,0,0,1,1.15,1.722,7.017,7.017,0,0,1,.447,2.152h.9v-5.58h-1.177l.055,1.214a4.717,4.717,0,0,0-1.793-1.084A5.773,5.773,0,0,0,97.209,19.07Z"/><path class="e" d="M111.481,19.578v1.307l1.2-.1q.027.353.123.928a13.951,13.951,0,0,0,.351,1.431q.256.861.7,2.069L117.875,35.6h1.118l3.674-10.766q.507-1.437.885-2.391a4.967,4.967,0,0,1,.8-1.431,1.32,1.32,0,0,1,1.036-.482v-.954H120.96v1.307l1.793-.1h0q-.114.29-.365.866a11.579,11.579,0,0,0-.479,1.333l-2.241,6.981q-.141.508-.324,1.053t-.319,1.016h-.032q-.2-.638-.406-1.224t-.434-1.131l-2.158-5.611a12.516,12.516,0,0,1-.507-1.732,2.072,2.072,0,0,1,.073-1.307q.237-.5,1.077-.5v-.954Z"/><path class="e" d="M129.442,12.312a1.341,1.341,0,0,0-1.05.56,2.222,2.222,0,0,0-.014,2.692,1.319,1.319,0,0,0,1.036.539,1.382,1.382,0,0,0,1.077-.539,1.988,1.988,0,0,0,.465-1.338,2.132,2.132,0,0,0-.434-1.354A1.318,1.318,0,0,0,129.442,12.312Zm.516,6.949a2,2,0,0,1-.548.415,3.793,3.793,0,0,1-1.022.316,11.125,11.125,0,0,1-1.908.124v1.338l.995-.062.995-.062h0q-.055.638-.082,1.1t-.027.97v7.266q0,1.146-.059,2.023a2.737,2.737,0,0,1-.392,1.374,1.35,1.35,0,0,1-1.2.493v.954h5.723V34.2q-.452.031-.885.047t-.881.052a8.562,8.562,0,0,0,.1-1.037q.014-.493.014-1.131V19.262Z"/><path class="e" d="M139.6,19.07a5.272,5.272,0,0,0-2.355.462,4.011,4.011,0,0,0-1.46,1.177,4.714,4.714,0,0,0-.758,1.514,5.478,5.478,0,0,0-.224,1.468,4.481,4.481,0,0,0,.42,2.038,4.308,4.308,0,0,0,1.136,1.405,8.618,8.618,0,0,0,1.556.985q.844.41,1.684.793a15.218,15.218,0,0,1,1.625.83,4.258,4.258,0,0,1,1.218,1.037,2.3,2.3,0,0,1,.465,1.478,2.109,2.109,0,0,1-.479,1.421,2.923,2.923,0,0,1-1.177.83,3.933,3.933,0,0,1-1.428.27,3.728,3.728,0,0,1-1.99-.57,4.423,4.423,0,0,1-1.515-1.613,5.11,5.11,0,0,1-.643-2.344h-.872l.169,5.482h1.177l-.11-1.115h0a7.3,7.3,0,0,0,1.793.97,6.784,6.784,0,0,0,2.5.43,5.607,5.607,0,0,0,2.309-.493,4.284,4.284,0,0,0,1.825-1.545,4.6,4.6,0,0,0,.716-2.645A3.932,3.932,0,0,0,144.535,29a5.333,5.333,0,0,0-1.652-1.514q-1.009-.607-2.076-1.115-.981-.446-1.853-.923a4.969,4.969,0,0,1-1.415-1.136A2.478,2.478,0,0,1,137,22.669a2.324,2.324,0,0,1,.726-1.685,2.719,2.719,0,0,1,2.022-.736,2.815,2.815,0,0,1,1.962.685,4.352,4.352,0,0,1,1.15,1.722,7.017,7.017,0,0,1,.447,2.152h.9v-5.58h-1.177l.055,1.214a4.717,4.717,0,0,0-1.793-1.084A5.773,5.773,0,0,0,139.6,19.07Z"/><path class="e" d="M150.594,15.118a6.784,6.784,0,0,1-.826,2.23,5.652,5.652,0,0,1-1.36,1.613,2.633,2.633,0,0,1-1.488.617v1.369l2.158-.031-.055,9.242a11.542,11.542,0,0,0,.333,3.075A4.275,4.275,0,0,0,150.27,35a2.925,2.925,0,0,0,1.246.809,4.479,4.479,0,0,0,1.319.207,5.139,5.139,0,0,0,.812-.078,3.319,3.319,0,0,0,1.04-.384,5.04,5.04,0,0,0,1.164-.908,8.4,8.4,0,0,0,1.218-1.654l-.758-.705a4.727,4.727,0,0,1-1.218,1.405,2.438,2.438,0,0,1-1.474.508,1.618,1.618,0,0,1-1.232-.508,3.179,3.179,0,0,1-.689-1.514,12.131,12.131,0,0,1-.21-2.437l.059-8.858,4.709-.062V19.578h-4.709v-4.46Z"/><path class="e" d="M165.369,20.278a2.894,2.894,0,0,1,1.921.669,4.88,4.88,0,0,1,1.3,1.8,10.443,10.443,0,0,1,.744,2.52,16.336,16.336,0,0,1,.242,2.816A13.358,13.358,0,0,1,169.2,31.3a5.644,5.644,0,0,1-1.25,2.489,3.023,3.023,0,0,1-2.355.954,3.158,3.158,0,0,1-2.469-1.115,7.1,7.1,0,0,1-1.456-2.889A14.37,14.37,0,0,1,161.193,27a12,12,0,0,1,.434-3.283,5.734,5.734,0,0,1,1.36-2.484A3.166,3.166,0,0,1,165.369,20.278Zm0-1.208a5.97,5.97,0,0,0-3.591,1.162,7.928,7.928,0,0,0-2.524,3.169,10.727,10.727,0,0,0-.922,4.527,9.064,9.064,0,0,0,.94,4.19,7.326,7.326,0,0,0,2.537,2.868,6.42,6.42,0,0,0,3.559,1.032,5.9,5.9,0,0,0,3.587-1.177,8.086,8.086,0,0,0,2.537-3.2,10.524,10.524,0,0,0,.94-4.481,8.764,8.764,0,0,0-.954-4.139,7.6,7.6,0,0,0-2.551-2.883A6.262,6.262,0,0,0,165.369,19.07Z"/><path class="e" d="M179.836,19.07a5.272,5.272,0,0,0-2.355.462,4.011,4.011,0,0,0-1.46,1.177,4.714,4.714,0,0,0-.758,1.514,5.478,5.478,0,0,0-.224,1.468,4.481,4.481,0,0,0,.42,2.038,4.308,4.308,0,0,0,1.136,1.405,8.619,8.619,0,0,0,1.556.985q.844.41,1.684.793a15.218,15.218,0,0,1,1.625.83,4.258,4.258,0,0,1,1.218,1.037,2.3,2.3,0,0,1,.465,1.478,2.109,2.109,0,0,1-.479,1.421,2.924,2.924,0,0,1-1.177.83,3.933,3.933,0,0,1-1.428.27,3.728,3.728,0,0,1-1.99-.57,4.423,4.423,0,0,1-1.515-1.613,5.11,5.11,0,0,1-.643-2.344h-.872l.169,5.482h1.177l-.11-1.115h0a7.3,7.3,0,0,0,1.793.97,6.784,6.784,0,0,0,2.5.43,5.607,5.607,0,0,0,2.309-.493A4.284,4.284,0,0,0,184.7,33.98a4.6,4.6,0,0,0,.716-2.645A3.932,3.932,0,0,0,184.769,29a5.333,5.333,0,0,0-1.652-1.514q-1.008-.607-2.076-1.115-.981-.446-1.853-.923a4.969,4.969,0,0,1-1.415-1.136,2.478,2.478,0,0,1-.543-1.639,2.324,2.324,0,0,1,.726-1.685,2.719,2.719,0,0,1,2.022-.736,2.815,2.815,0,0,1,1.962.685,4.352,4.352,0,0,1,1.15,1.722,7.016,7.016,0,0,1,.447,2.152h.9v-5.58h-1.177l.055,1.214a4.717,4.717,0,0,0-1.793-1.084A5.773,5.773,0,0,0,179.836,19.07Z"/></g></svg>