<svg xmlns="http://www.w3.org/2000/svg" xmlns:xlink="http://www.w3.org/1999/xlink" width="193.5" height="105.318" viewBox="0 0 193.5 105.318"><defs><style>.a,.e{fill:none;}.b{clip-path:url(#a);}.c{fill:rgba(0,0,0,0);}.c,.d,.e{fill-rule:evenodd;}.d{fill:#a87dd1;}.e{stroke:#a87dd1;stroke-linejoin:round;stroke-miterlimit:10;}</style><clipPath id="a"><path class="a" d="M0,0H193.5V105.318H0Z"/></clipPath></defs><g class="b"><path class="c" d="M0,0H193.5V105.318H0Z"/><path class="d" d="M16.149,3.759q-.073,0-.151.006a1.925,1.925,0,0,0-1.062.567l-3.99,3.8.7.922,4.593-2.818a2.3,2.3,0,0,0,.887-.855,1.113,1.113,0,0,0,.108-.742,1.386,1.386,0,0,0-.17-.464,1.424,1.424,0,0,0-.335-.268A1.035,1.035,0,0,0,16.149,3.759ZM1.207,10.946v1.36q.572-.031,1.139-.046t1.144-.046h0q-.031.6-.082,1.726t-.046,1.947v6.424a25.1,25.1,0,0,0,.443,5.064A8.873,8.873,0,0,0,5.28,30.888a6.052,6.052,0,0,0,2.753,2.056,11.936,11.936,0,0,0,4.263.665,8.716,8.716,0,0,0,4.006-.835,7.042,7.042,0,0,0,2.629-2.3,9.833,9.833,0,0,0,1.443-3.323,16.966,16.966,0,0,0,.443-3.926l.062-7.341q0-1.144.046-1.994a2.125,2.125,0,0,1,.505-1.36,2.265,2.265,0,0,1,1.665-.541V10.946H17.2v1.4q.572-.036,1.124-.067l1.124-.062h0q-.031.474-.062,1.061t-.031,1.216l-.093,8.9a13.523,13.523,0,0,1-.717,4.369,6.215,6.215,0,0,1-2.124,2.973,6.04,6.04,0,0,1-3.717,1.077,6.627,6.627,0,0,1-3.439-.788,5.116,5.116,0,0,1-1.98-2.122,9.7,9.7,0,0,1-.9-2.988,24.334,24.334,0,0,1-.237-3.436V14.49a6.609,6.609,0,0,1,.093-1.025,1.824,1.824,0,0,1,.557-1.03,2.119,2.119,0,0,1,1.505-.443V10.946Z" transform="translate(-0.088 0.16)"/><path class="d" d="M30.651,8.982a2.247,2.247,0,0,1-.619.412,4.569,4.569,0,0,1-1.175.319,14.545,14.545,0,0,1-2.165.124v1.329L27.81,11.1l1.129-.062h0q-.062.634-.082,1.092t-.015.963V28.069q0,1.139-.062,2.009a2.485,2.485,0,0,1-.443,1.365,1.634,1.634,0,0,1-1.361.489v.948h6.46v-1.3q-.505.031-.995.046t-1,.052a8.969,8.969,0,0,0,.129-1.03q.031-.489.031-1.123L31.568,8.982Z" transform="translate(-1.938 0.384)"/><path class="d" d="M39.992,12.475a6.253,6.253,0,0,1-.933,2.215,5.874,5.874,0,0,1-1.536,1.6,3.207,3.207,0,0,1-1.681.613v1.36l2.438-.031-.062,9.18A10.151,10.151,0,0,0,38.6,30.47a4.1,4.1,0,0,0,1.031,1.757,3.382,3.382,0,0,0,1.407.8,5.7,5.7,0,0,0,1.49.206,6.581,6.581,0,0,0,.918-.077,4.09,4.09,0,0,0,1.175-.381,5.665,5.665,0,0,0,1.315-.9,8.51,8.51,0,0,0,1.376-1.643l-.856-.7a4.939,4.939,0,0,1-1.376,1.4,3.006,3.006,0,0,1-1.665.5,1.959,1.959,0,0,1-1.392-.5,3.005,3.005,0,0,1-.778-1.5A10.64,10.64,0,0,1,41,27l.067-8.8,5.32-.062V16.905H41.07v-4.43Z" transform="translate(-2.603 0.533)"/><path class="d" d="M52.917,9.8a1.586,1.586,0,0,0-1.186.556,2,2,0,0,0-.015,2.674,1.564,1.564,0,0,0,1.17.536,1.645,1.645,0,0,0,1.217-.536,1.834,1.834,0,0,0,.526-1.329,1.953,1.953,0,0,0-.49-1.345A1.561,1.561,0,0,0,52.917,9.8Zm.583,6.9a2.247,2.247,0,0,1-.619.412,4.719,4.719,0,0,1-1.155.314,14.264,14.264,0,0,1-2.155.124v1.329l1.124-.062,1.124-.062h0q-.062.634-.093,1.092t-.031.963v7.217q0,1.139-.067,2.009a2.485,2.485,0,0,1-.443,1.365,1.625,1.625,0,0,1-1.361.489v.948h6.465v-1.3q-.51.031-1,.046t-.995.052a7.506,7.506,0,0,0,.108-1.03q.015-.489.015-1.123V16.705Z" transform="translate(-3.6 0.419)"/><path class="d" d="M68.608,16.24a6.34,6.34,0,0,0-2.475.52A8.1,8.1,0,0,0,63.953,18.1q-.031-.536-.046-.948a4.284,4.284,0,0,0-.082-.726h-.918a2.48,2.48,0,0,1-.572.412,3.764,3.764,0,0,1-1.057.314,13.308,13.308,0,0,1-2.109.124v1.329l1.124-.062,1.124-.062h0a7.45,7.45,0,0,0-.108,1.046q-.015.5-.015,1.01v7.217q0,1.139-.067,2.009a2.485,2.485,0,0,1-.443,1.365,1.625,1.625,0,0,1-1.361.489v.948h6.465v-1.3q-.51.031-1,.046t-.995.052A7.506,7.506,0,0,0,64,30.34q.015-.489.015-1.123V21.082q0-.474-.015-.9t-.015-.809A5.385,5.385,0,0,1,65.6,18.28a4.685,4.685,0,0,1,1.933-.428h.081a2.794,2.794,0,0,1,2.61,1.366,8.017,8.017,0,0,1,.794,4.111l-.031,4.43q0,1.139-.082,2.009a2.663,2.663,0,0,1-.443,1.365,1.578,1.578,0,0,1-1.346.489v.948h6.465v-1.3q-.51.031-1,.046t-.995.052a7.5,7.5,0,0,0,.108-1.03q.015-.489.015-1.123.031-1.87.031-3.735t.036-3.7a8.663,8.663,0,0,0-.082-1.216,6.506,6.506,0,0,0-.237-1.1,6.437,6.437,0,0,1,1.706-1.108,4.765,4.765,0,0,1,1.969-.443h.082a2.924,2.924,0,0,1,2.655,1.335,7.663,7.663,0,0,1,.871,4.08v4.43q0,1.139-.062,2.009a2.485,2.485,0,0,1-.443,1.365,1.634,1.634,0,0,1-1.361.489v.948h6.46v-1.3q-.505.031-1,.046t-.995.052a7.5,7.5,0,0,0,.108-1.03q.021-.489.021-1.123l.031-5.888q.062-3.766-1.237-5.425a4.822,4.822,0,0,0-4.052-1.664,6.885,6.885,0,0,0-2.774.618,10.462,10.462,0,0,0-2.485,1.5,4.252,4.252,0,0,0-1.681-1.545A5.622,5.622,0,0,0,68.608,16.24Z" transform="translate(-4.296 0.693)"/><path class="d" d="M97.825,17.44a3.558,3.558,0,0,1,2.17.665,4.932,4.932,0,0,1,1.469,1.788,9.456,9.456,0,0,1,.84,2.5,14.323,14.323,0,0,1,.273,2.8,11.751,11.751,0,0,1-.428,3.2,5.392,5.392,0,0,1-1.413,2.473,3.663,3.663,0,0,1-2.66.948,3.794,3.794,0,0,1-2.789-1.108,6.788,6.788,0,0,1-1.645-2.869,12.656,12.656,0,0,1-.536-3.714,10.571,10.571,0,0,1,.49-3.261,5.543,5.543,0,0,1,1.536-2.468A3.842,3.842,0,0,1,97.825,17.44Zm0-1.2a7.387,7.387,0,0,0-4.057,1.154,8.152,8.152,0,0,0-2.851,3.148,9.567,9.567,0,0,0-1.041,4.5A8.118,8.118,0,0,0,90.937,29.2,7.68,7.68,0,0,0,93.8,32.05a8,8,0,0,0,4.021,1.025,7.29,7.29,0,0,0,4.052-1.169,8.307,8.307,0,0,0,2.866-3.179,9.4,9.4,0,0,0,1.062-4.451,7.858,7.858,0,0,0-1.077-4.111,7.97,7.97,0,0,0-2.882-2.864A7.784,7.784,0,0,0,97.825,16.24Z" transform="translate(-6.526 0.693)"/><path class="d" d="M115.646,16.24a6.663,6.663,0,0,0-2.66.458,4.33,4.33,0,0,0-2.505,2.674,4.837,4.837,0,0,0-.253,1.458,4,4,0,0,0,.474,2.025,4.438,4.438,0,0,0,1.284,1.4,10.008,10.008,0,0,0,1.758.979q.954.407,1.9.788a18.186,18.186,0,0,1,1.835.824,4.7,4.7,0,0,1,1.376,1.03,2.108,2.108,0,0,1,.526,1.468,1.941,1.941,0,0,1-.541,1.412,3.334,3.334,0,0,1-1.33.824,4.985,4.985,0,0,1-1.614.268,4.679,4.679,0,0,1-4.686-4.5h-.985l.191,5.445h1.33l-.124-1.108h0a8.717,8.717,0,0,0,4.846,1.391,7.08,7.08,0,0,0,2.609-.489,4.736,4.736,0,0,0,2.062-1.535,4.165,4.165,0,0,0,.809-2.627,3.568,3.568,0,0,0-.732-2.323,5.81,5.81,0,0,0-1.866-1.5q-1.139-.6-2.346-1.108-1.108-.443-2.093-.917a5.544,5.544,0,0,1-1.6-1.128,2.277,2.277,0,0,1-.613-1.628,2.185,2.185,0,0,1,.82-1.674,3.323,3.323,0,0,1,2.284-.732,3.455,3.455,0,0,1,2.217.68,4.336,4.336,0,0,1,1.3,1.71,6.251,6.251,0,0,1,.505,2.138h1.016V16.394h-1.33l.062,1.205a5.515,5.515,0,0,0-2.026-1.077A7.34,7.34,0,0,0,115.646,16.24Z" transform="translate(-8.004 0.693)"/><path class="d" d="M138.066,8.982a2.246,2.246,0,0,1-.619.412,4.569,4.569,0,0,1-1.175.319,14.545,14.545,0,0,1-2.165.124v1.329l1.119-.062,1.129-.062h0q-.062.634-.082,1.092t-.015.963V28.069q0,1.139-.062,2.009a2.485,2.485,0,0,1-.443,1.365,1.634,1.634,0,0,1-1.361.489v.948h6.46v-1.3q-.505.031-.995.046t-1,.052a8.969,8.969,0,0,0,.129-1.03q.031-.489.031-1.123l-.031-20.545Z" transform="translate(-9.738 0.384)"/><path class="d" d="M147.115,9.8a1.587,1.587,0,0,0-1.186.556,2,2,0,0,0-.015,2.674,1.564,1.564,0,0,0,1.17.536,1.645,1.645,0,0,0,1.217-.536,1.834,1.834,0,0,0,.526-1.329,1.953,1.953,0,0,0-.49-1.345A1.561,1.561,0,0,0,147.115,9.8Zm.583,6.9a2.247,2.247,0,0,1-.619.412,4.718,4.718,0,0,1-1.155.314,14.264,14.264,0,0,1-2.155.124v1.329l1.124-.062,1.124-.062h0q-.062.634-.093,1.092t-.031.963v7.217q0,1.139-.067,2.009a2.485,2.485,0,0,1-.443,1.365,1.625,1.625,0,0,1-1.361.489v.948h6.465v-1.3q-.51.031-1,.046t-.995.052a7.505,7.505,0,0,0,.108-1.03q.015-.489.015-1.123V16.705Z" transform="translate(-10.44 0.419)"/><path class="d" d="M161.9,17.781a6.355,6.355,0,0,1,1.851.273,5.306,5.306,0,0,1,1.665.835l-.031,9.118v.932q0,.428.031.809a5.915,5.915,0,0,1-1.758,1.489,4.272,4.272,0,0,1-2.109.6,3.768,3.768,0,0,1-2.516-.871,5.543,5.543,0,0,1-1.588-2.385,11.132,11.132,0,0,1-.613-3.452,10.416,10.416,0,0,1,.536-3.859,5.611,5.611,0,0,1,1.773-2.566A4.338,4.338,0,0,1,161.9,17.781Zm5.289-8.8a2.247,2.247,0,0,1-.619.412,4.547,4.547,0,0,1-1.16.319,14.218,14.218,0,0,1-2.15.124v1.329l1.124-.062,1.124-.062h0q-.062.634-.077,1.092t-.015.963v4.338a6.635,6.635,0,0,0-1.634-.618,8.171,8.171,0,0,0-2.072-.268,7.8,7.8,0,0,0-7.094,4.271,9.732,9.732,0,0,0-1.047,4.59,9.4,9.4,0,0,0,.9,4.245,6.681,6.681,0,0,0,2.454,2.766,6.472,6.472,0,0,0,3.485.963,6.969,6.969,0,0,0,2.882-.582,6.541,6.541,0,0,0,2.186-1.566q.031.376.077.773t.144.871h4.532V31.551l-1.129.062q-.552.031-1.119.067.062-.634.093-1.139t.031-1.015V8.982Z" transform="translate(-11.151 0.384)"/><path class="d" d="M181.912,17.44a3.558,3.558,0,0,1,2.17.665,4.932,4.932,0,0,1,1.469,1.788,9.457,9.457,0,0,1,.84,2.5,14.325,14.325,0,0,1,.273,2.8,11.751,11.751,0,0,1-.428,3.2,5.392,5.392,0,0,1-1.413,2.473,3.663,3.663,0,0,1-2.66.948,3.794,3.794,0,0,1-2.789-1.108,6.788,6.788,0,0,1-1.645-2.869,12.656,12.656,0,0,1-.536-3.714,10.571,10.571,0,0,1,.49-3.261,5.543,5.543,0,0,1,1.536-2.468A3.842,3.842,0,0,1,181.912,17.44Zm0-1.2a7.386,7.386,0,0,0-4.057,1.154A8.152,8.152,0,0,0,175,20.541a9.567,9.567,0,0,0-1.041,4.5,8.118,8.118,0,0,0,1.062,4.163,7.68,7.68,0,0,0,2.866,2.849,8,8,0,0,0,4.021,1.025,7.29,7.29,0,0,0,4.052-1.169,8.307,8.307,0,0,0,2.866-3.179,9.4,9.4,0,0,0,1.062-4.451,7.859,7.859,0,0,0-1.077-4.111,7.97,7.97,0,0,0-2.882-2.864A7.784,7.784,0,0,0,181.912,16.24Z" transform="translate(-12.632 0.693)"/><path class="d" d="M199.734,16.24a6.663,6.663,0,0,0-2.66.458,4.33,4.33,0,0,0-2.505,2.674,4.837,4.837,0,0,0-.253,1.458,4,4,0,0,0,.474,2.025,4.438,4.438,0,0,0,1.284,1.4,10.008,10.008,0,0,0,1.758.979q.954.407,1.9.788a18.186,18.186,0,0,1,1.835.824,4.7,4.7,0,0,1,1.376,1.03,2.108,2.108,0,0,1,.526,1.468,1.941,1.941,0,0,1-.541,1.412,3.334,3.334,0,0,1-1.33.824,4.985,4.985,0,0,1-1.614.268,4.679,4.679,0,0,1-4.686-4.5h-.985l.191,5.445h1.33l-.124-1.108h0a8.717,8.717,0,0,0,4.846,1.391,7.08,7.08,0,0,0,2.609-.489,4.736,4.736,0,0,0,2.062-1.535,4.165,4.165,0,0,0,.809-2.627,3.568,3.568,0,0,0-.732-2.323,5.81,5.81,0,0,0-1.866-1.5q-1.139-.6-2.346-1.108-1.108-.443-2.093-.917a5.544,5.544,0,0,1-1.6-1.128,2.277,2.277,0,0,1-.613-1.628,2.185,2.185,0,0,1,.82-1.674,3.323,3.323,0,0,1,2.284-.732,3.455,3.455,0,0,1,2.217.68,4.336,4.336,0,0,1,1.3,1.71,6.251,6.251,0,0,1,.505,2.138h1.016V16.394H203.6l.062,1.205a5.515,5.515,0,0,0-2.026-1.077A7.34,7.34,0,0,0,199.734,16.24Z" transform="translate(-14.11 0.693)"/><path class="e" d="M16.149,3.759q-.073,0-.151.006a1.925,1.925,0,0,0-1.062.567l-3.99,3.8.7.922,4.593-2.818a2.3,2.3,0,0,0,.887-.855,1.113,1.113,0,0,0,.108-.742,1.386,1.386,0,0,0-.17-.464,1.424,1.424,0,0,0-.335-.268A1.035,1.035,0,0,0,16.149,3.759ZM1.207,10.946v1.36q.572-.031,1.139-.046t1.144-.046h0q-.031.6-.082,1.726t-.046,1.947v6.424a25.1,25.1,0,0,0,.443,5.064A8.873,8.873,0,0,0,5.28,30.888a6.052,6.052,0,0,0,2.753,2.056,11.936,11.936,0,0,0,4.263.665,8.716,8.716,0,0,0,4.006-.835,7.042,7.042,0,0,0,2.629-2.3,9.833,9.833,0,0,0,1.443-3.323,16.966,16.966,0,0,0,.443-3.926l.062-7.341q0-1.144.046-1.994a2.125,2.125,0,0,1,.505-1.36,2.265,2.265,0,0,1,1.665-.541V10.946H17.2v1.4q.572-.036,1.124-.067l1.124-.062h0q-.031.474-.062,1.061t-.031,1.216l-.093,8.9a13.523,13.523,0,0,1-.717,4.369,6.215,6.215,0,0,1-2.124,2.973,6.04,6.04,0,0,1-3.717,1.077,6.627,6.627,0,0,1-3.439-.788,5.116,5.116,0,0,1-1.98-2.122,9.7,9.7,0,0,1-.9-2.988,24.334,24.334,0,0,1-.237-3.436V14.49a6.609,6.609,0,0,1,.093-1.025,1.824,1.824,0,0,1,.557-1.03,2.119,2.119,0,0,1,1.505-.443V10.946Z" transform="translate(-0.088 0.16)"/><path class="e" d="M30.651,8.982a2.247,2.247,0,0,1-.619.412,4.569,4.569,0,0,1-1.175.319,14.545,14.545,0,0,1-2.165.124v1.329L27.81,11.1l1.129-.062h0q-.062.634-.082,1.092t-.015.963V28.069q0,1.139-.062,2.009a2.485,2.485,0,0,1-.443,1.365,1.634,1.634,0,0,1-1.361.489v.948h6.46v-1.3q-.505.031-.995.046t-1,.052a8.969,8.969,0,0,0,.129-1.03q.031-.489.031-1.123L31.568,8.982Z" transform="translate(-1.938 0.384)"/><path class="e" d="M39.992,12.475a6.253,6.253,0,0,1-.933,2.215,5.874,5.874,0,0,1-1.536,1.6,3.207,3.207,0,0,1-1.681.613v1.36l2.438-.031-.062,9.18A10.151,10.151,0,0,0,38.6,30.47a4.1,4.1,0,0,0,1.031,1.757,3.382,3.382,0,0,0,1.407.8,5.7,5.7,0,0,0,1.49.206,6.581,6.581,0,0,0,.918-.077,4.09,4.09,0,0,0,1.175-.381,5.665,5.665,0,0,0,1.315-.9,8.51,8.51,0,0,0,1.376-1.643l-.856-.7a4.939,4.939,0,0,1-1.376,1.4,3.006,3.006,0,0,1-1.665.5,1.959,1.959,0,0,1-1.392-.5,3.005,3.005,0,0,1-.778-1.5A10.64,10.64,0,0,1,41,27l.067-8.8,5.32-.062V16.905H41.07v-4.43Z" transform="translate(-2.603 0.533)"/><path class="e" d="M52.917,9.8a1.586,1.586,0,0,0-1.186.556,2,2,0,0,0-.015,2.674,1.564,1.564,0,0,0,1.17.536,1.645,1.645,0,0,0,1.217-.536,1.834,1.834,0,0,0,.526-1.329,1.953,1.953,0,0,0-.49-1.345A1.561,1.561,0,0,0,52.917,9.8Zm.583,6.9a2.247,2.247,0,0,1-.619.412,4.719,4.719,0,0,1-1.155.314,14.264,14.264,0,0,1-2.155.124v1.329l1.124-.062,1.124-.062h0q-.062.634-.093,1.092t-.031.963v7.217q0,1.139-.067,2.009a2.485,2.485,0,0,1-.443,1.365,1.625,1.625,0,0,1-1.361.489v.948h6.465v-1.3q-.51.031-1,.046t-.995.052a7.506,7.506,0,0,0,.108-1.03q.015-.489.015-1.123V16.705Z" transform="translate(-3.6 0.419)"/><path class="e" d="M68.608,16.24a6.34,6.34,0,0,0-2.475.52A8.1,8.1,0,0,0,63.953,18.1q-.031-.536-.046-.948a4.284,4.284,0,0,0-.082-.726h-.918a2.48,2.48,0,0,1-.572.412,3.764,3.764,0,0,1-1.057.314,13.308,13.308,0,0,1-2.109.124v1.329l1.124-.062,1.124-.062h0a7.45,7.45,0,0,0-.108,1.046q-.015.5-.015,1.01v7.217q0,1.139-.067,2.009a2.485,2.485,0,0,1-.443,1.365,1.625,1.625,0,0,1-1.361.489v.948h6.465v-1.3q-.51.031-1,.046t-.995.052A7.506,7.506,0,0,0,64,30.34q.015-.489.015-1.123V21.082q0-.474-.015-.9t-.015-.809A5.385,5.385,0,0,1,65.6,18.28a4.685,4.685,0,0,1,1.933-.428h.081a2.794,2.794,0,0,1,2.61,1.366,8.017,8.017,0,0,1,.794,4.111l-.031,4.43q0,1.139-.082,2.009a2.663,2.663,0,0,1-.443,1.365,1.578,1.578,0,0,1-1.346.489v.948h6.465v-1.3q-.51.031-1,.046t-.995.052a7.5,7.5,0,0,0,.108-1.03q.015-.489.015-1.123.031-1.87.031-3.735t.036-3.7a8.663,8.663,0,0,0-.082-1.216,6.506,6.506,0,0,0-.237-1.1,6.437,6.437,0,0,1,1.706-1.108,4.765,4.765,0,0,1,1.969-.443h.082a2.924,2.924,0,0,1,2.655,1.335,7.663,7.663,0,0,1,.871,4.08v4.43q0,1.139-.062,2.009a2.485,2.485,0,0,1-.443,1.365,1.634,1.634,0,0,1-1.361.489v.948h6.46v-1.3q-.505.031-1,.046t-.995.052a7.5,7.5,0,0,0,.108-1.03q.021-.489.021-1.123l.031-5.888q.062-3.766-1.237-5.425a4.822,4.822,0,0,0-4.052-1.664,6.885,6.885,0,0,0-2.774.618,10.462,10.462,0,0,0-2.485,1.5,4.252,4.252,0,0,0-1.681-1.545A5.622,5.622,0,0,0,68.608,16.24Z" transform="translate(-4.296 0.693)"/><path class="e" d="M97.825,17.44a3.558,3.558,0,0,1,2.17.665,4.932,4.932,0,0,1,1.469,1.788,9.456,9.456,0,0,1,.84,2.5,14.323,14.323,0,0,1,.273,2.8,11.751,11.751,0,0,1-.428,3.2,5.392,5.392,0,0,1-1.413,2.473,3.663,3.663,0,0,1-2.66.948,3.794,3.794,0,0,1-2.789-1.108,6.788,6.788,0,0,1-1.645-2.869,12.656,12.656,0,0,1-.536-3.714,10.571,10.571,0,0,1,.49-3.261,5.543,5.543,0,0,1,1.536-2.468A3.842,3.842,0,0,1,97.825,17.44Zm0-1.2a7.387,7.387,0,0,0-4.057,1.154,8.152,8.152,0,0,0-2.851,3.148,9.567,9.567,0,0,0-1.041,4.5A8.118,8.118,0,0,0,90.937,29.2,7.68,7.68,0,0,0,93.8,32.05a8,8,0,0,0,4.021,1.025,7.29,7.29,0,0,0,4.052-1.169,8.307,8.307,0,0,0,2.866-3.179,9.4,9.4,0,0,0,1.062-4.451,7.858,7.858,0,0,0-1.077-4.111,7.97,7.97,0,0,0-2.882-2.864A7.784,7.784,0,0,0,97.825,16.24Z" transform="translate(-6.526 0.693)"/><path class="e" d="M115.646,16.24a6.663,6.663,0,0,0-2.66.458,4.33,4.33,0,0,0-2.505,2.674,4.837,4.837,0,0,0-.253,1.458,4,4,0,0,0,.474,2.025,4.438,4.438,0,0,0,1.284,1.4,10.008,10.008,0,0,0,1.758.979q.954.407,1.9.788a18.186,18.186,0,0,1,1.835.824,4.7,4.7,0,0,1,1.376,1.03,2.108,2.108,0,0,1,.526,1.468,1.941,1.941,0,0,1-.541,1.412,3.334,3.334,0,0,1-1.33.824,4.985,4.985,0,0,1-1.614.268,4.679,4.679,0,0,1-4.686-4.5h-.985l.191,5.445h1.33l-.124-1.108h0a8.717,8.717,0,0,0,4.846,1.391,7.08,7.08,0,0,0,2.609-.489,4.736,4.736,0,0,0,2.062-1.535,4.165,4.165,0,0,0,.809-2.627,3.568,3.568,0,0,0-.732-2.323,5.81,5.81,0,0,0-1.866-1.5q-1.139-.6-2.346-1.108-1.108-.443-2.093-.917a5.544,5.544,0,0,1-1.6-1.128,2.277,2.277,0,0,1-.613-1.628,2.185,2.185,0,0,1,.82-1.674,3.323,3.323,0,0,1,2.284-.732,3.455,3.455,0,0,1,2.217.68,4.336,4.336,0,0,1,1.3,1.71,6.251,6.251,0,0,1,.505,2.138h1.016V16.394h-1.33l.062,1.205a5.515,5.515,0,0,0-2.026-1.077A7.34,7.34,0,0,0,115.646,16.24Z" transform="translate(-8.004 0.693)"/><path class="e" d="M138.066,8.982a2.246,2.246,0,0,1-.619.412,4.569,4.569,0,0,1-1.175.319,14.545,14.545,0,0,1-2.165.124v1.329l1.119-.062,1.129-.062h0q-.062.634-.082,1.092t-.015.963V28.069q0,1.139-.062,2.009a2.485,2.485,0,0,1-.443,1.365,1.634,1.634,0,0,1-1.361.489v.948h6.46v-1.3q-.505.031-.995.046t-1,.052a8.969,8.969,0,0,0,.129-1.03q.031-.489.031-1.123l-.031-20.545Z" transform="translate(-9.738 0.384)"/><path class="e" d="M147.115,9.8a1.587,1.587,0,0,0-1.186.556,2,2,0,0,0-.015,2.674,1.564,1.564,0,0,0,1.17.536,1.645,1.645,0,0,0,1.217-.536,1.834,1.834,0,0,0,.526-1.329,1.953,1.953,0,0,0-.49-1.345A1.561,1.561,0,0,0,147.115,9.8Zm.583,6.9a2.247,2.247,0,0,1-.619.412,4.718,4.718,0,0,1-1.155.314,14.264,14.264,0,0,1-2.155.124v1.329l1.124-.062,1.124-.062h0q-.062.634-.093,1.092t-.031.963v7.217q0,1.139-.067,2.009a2.485,2.485,0,0,1-.443,1.365,1.625,1.625,0,0,1-1.361.489v.948h6.465v-1.3q-.51.031-1,.046t-.995.052a7.505,7.505,0,0,0,.108-1.03q.015-.489.015-1.123V16.705Z" transform="translate(-10.44 0.419)"/><path class="e" d="M161.9,17.781a6.355,6.355,0,0,1,1.851.273,5.306,5.306,0,0,1,1.665.835l-.031,9.118v.932q0,.428.031.809a5.915,5.915,0,0,1-1.758,1.489,4.272,4.272,0,0,1-2.109.6,3.768,3.768,0,0,1-2.516-.871,5.543,5.543,0,0,1-1.588-2.385,11.132,11.132,0,0,1-.613-3.452,10.416,10.416,0,0,1,.536-3.859,5.611,5.611,0,0,1,1.773-2.566A4.338,4.338,0,0,1,161.9,17.781Zm5.289-8.8a2.247,2.247,0,0,1-.619.412,4.547,4.547,0,0,1-1.16.319,14.218,14.218,0,0,1-2.15.124v1.329l1.124-.062,1.124-.062h0q-.062.634-.077,1.092t-.015.963v4.338a6.635,6.635,0,0,0-1.634-.618,8.171,8.171,0,0,0-2.072-.268,7.8,7.8,0,0,0-7.094,4.271,9.732,9.732,0,0,0-1.047,4.59,9.4,9.4,0,0,0,.9,4.245,6.681,6.681,0,0,0,2.454,2.766,6.472,6.472,0,0,0,3.485.963,6.969,6.969,0,0,0,2.882-.582,6.541,6.541,0,0,0,2.186-1.566q.031.376.077.773t.144.871h4.532V31.551l-1.129.062q-.552.031-1.119.067.062-.634.093-1.139t.031-1.015V8.982Z" transform="translate(-11.151 0.384)"/><path class="e" d="M181.912,17.44a3.558,3.558,0,0,1,2.17.665,4.932,4.932,0,0,1,1.469,1.788,9.457,9.457,0,0,1,.84,2.5,14.325,14.325,0,0,1,.273,2.8,11.751,11.751,0,0,1-.428,3.2,5.392,5.392,0,0,1-1.413,2.473,3.663,3.663,0,0,1-2.66.948,3.794,3.794,0,0,1-2.789-1.108,6.788,6.788,0,0,1-1.645-2.869,12.656,12.656,0,0,1-.536-3.714,10.571,10.571,0,0,1,.49-3.261,5.543,5.543,0,0,1,1.536-2.468A3.842,3.842,0,0,1,181.912,17.44Zm0-1.2a7.386,7.386,0,0,0-4.057,1.154A8.152,8.152,0,0,0,175,20.541a9.567,9.567,0,0,0-1.041,4.5,8.118,8.118,0,0,0,1.062,4.163,7.68,7.68,0,0,0,2.866,2.849,8,8,0,0,0,4.021,1.025,7.29,7.29,0,0,0,4.052-1.169,8.307,8.307,0,0,0,2.866-3.179,9.4,9.4,0,0,0,1.062-4.451,7.859,7.859,0,0,0-1.077-4.111,7.97,7.97,0,0,0-2.882-2.864A7.784,7.784,0,0,0,181.912,16.24Z" transform="translate(-12.632 0.693)"/><path class="e" d="M199.734,16.24a6.663,6.663,0,0,0-2.66.458,4.33,4.33,0,0,0-2.505,2.674,4.837,4.837,0,0,0-.253,1.458,4,4,0,0,0,.474,2.025,4.438,4.438,0,0,0,1.284,1.4,10.008,10.008,0,0,0,1.758.979q.954.407,1.9.788a18.186,18.186,0,0,1,1.835.824,4.7,4.7,0,0,1,1.376,1.03,2.108,2.108,0,0,1,.526,1.468,1.941,1.941,0,0,1-.541,1.412,3.334,3.334,0,0,1-1.33.824,4.985,4.985,0,0,1-1.614.268,4.679,4.679,0,0,1-4.686-4.5h-.985l.191,5.445h1.33l-.124-1.108h0a8.717,8.717,0,0,0,4.846,1.391,7.08,7.08,0,0,0,2.609-.489,4.736,4.736,0,0,0,2.062-1.535,4.165,4.165,0,0,0,.809-2.627,3.568,3.568,0,0,0-.732-2.323,5.81,5.81,0,0,0-1.866-1.5q-1.139-.6-2.346-1.108-1.108-.443-2.093-.917a5.544,5.544,0,0,1-1.6-1.128,2.277,2.277,0,0,1-.613-1.628,2.185,2.185,0,0,1,.82-1.674,3.323,3.323,0,0,1,2.284-.732,3.455,3.455,0,0,1,2.217.68,4.336,4.336,0,0,1,1.3,1.71,6.251,6.251,0,0,1,.505,2.138h1.016V16.394H203.6l.062,1.205a5.515,5.515,0,0,0-2.026-1.077A7.34,7.34,0,0,0,199.734,16.24Z" transform="translate(-14.11 0.693)"/></g></svg>